<?xml version="1.0" standalone="no"?>
<!DOCTYPE svg PUBLIC "-//W3C//DTD SVG 20010904//EN"
 "http://www.w3.org/TR/2001/REC-SVG-20010904/DTD/svg10.dtd">
<svg version="1.0" xmlns="http://www.w3.org/2000/svg"
 width="700.000000pt" height="700.000000pt" viewBox="0 0 700.000000 700.000000"
 preserveAspectRatio="xMidYMid meet">
<metadata>
Created by potrace 1.11, written by Peter Selinger 2001-2013
</metadata>
<g transform="translate(0.000000,700.000000) scale(0.100000,-0.100000)"
fill="#000000" stroke="none">
<path d="M0 3500 l0 -3500 3500 0 3500 0 0 3500 0 3500 -3500 0 -3500 0 0
-3500z m4899 103 c792 -1377 1441 -2505 1441 -2508 0 -3 -138 -4 -306 -3
l-307 3 -1136 1968 c-1089 1886 -1137 1967 -1151 1946 -8 -13 -494 -898 -1080
-1968 l-1065 -1946 -318 -3 c-174 -1 -317 0 -317 3 0 4 2717 4913 2777 5018 3
5 9 5 13 0 4 -4 656 -1134 1449 -2510z"/>
</g>
</svg>
