<svg width="24" height="24" viewBox="0 0 24 24" fill="none" xmlns="http://www.w3.org/2000/svg">
<path fill-rule="evenodd" clip-rule="evenodd" d="M14.1692 7.94433V8.8674H17.8615V7.94433H14.1692ZM4.84607 7.46387L9.10692 7.51106C9.10692 7.51106 11.4467 7.38765 11.7692 9.24539C12.0917 11.1031 10.5923 11.542 10.5923 11.542C10.5923 11.542 12.4441 11.9626 12.1862 14.1326C11.9284 16.3025 9.39966 16.3249 9.39966 16.3249H4.84607V7.46387ZM6.78454 10.9905L8.54775 11.0015C8.66059 11.0015 8.95727 10.9917 9.2013 10.934C9.30576 10.9094 9.50904 10.8392 9.64938 10.7127C9.70766 10.6601 9.81501 10.5121 9.87696 10.3367C9.93717 10.1662 9.95282 9.96851 9.95282 9.89268C9.95282 9.75384 9.92754 9.62533 9.87696 9.50713C9.82639 9.38893 9.75053 9.28668 9.64938 9.20037C9.54823 9.11407 9.4196 9.04653 9.26348 8.99775C9.10736 8.94897 8.92156 8.92458 8.70607 8.92458L6.78454 8.91357V10.9905ZM6.78454 14.7168L8.71095 14.7289C8.83423 14.7289 9.15837 14.7181 9.42499 14.6544C9.53912 14.6271 9.76121 14.5496 9.91454 14.4097C9.97821 14.3517 10.0955 14.188 10.1632 13.9941C10.229 13.8057 10.2461 13.5872 10.2461 13.5034C10.2461 13.35 10.2184 13.2079 10.1632 13.0773C10.1079 12.9466 10.0251 12.8336 9.91454 12.7382C9.80403 12.6429 9.6635 12.5682 9.49293 12.5143C9.32235 12.4604 9.11936 12.4334 8.88392 12.4334L6.78454 12.4213V14.7168ZM14.5763 13.5365C14.5791 13.5882 14.5763 14.8608 15.619 15.1531C16.8296 15.4925 17.3691 14.4869 17.411 14.3704H18.9966C18.9556 14.5614 18.311 17.1614 14.8041 16.314C12.6514 15.7938 12.7621 13.2449 12.7621 13.0267C12.7621 12.8256 12.7708 11.7563 13.6382 10.7702C14.5057 9.78414 15.7407 9.78414 15.9908 9.78414C16.2409 9.78414 17.5271 9.78414 18.311 10.6543C19.3253 11.7803 19.1241 13.5844 19.1241 13.5844L14.5763 13.5365ZM17.3538 12.4213C17.3415 12.2218 17.3015 12.0379 17.2339 11.8698C17.1663 11.7016 17.0731 11.5559 16.9542 11.4327C16.8354 11.3095 16.693 11.2127 16.527 11.1422C16.361 11.0718 16.1756 11.0366 15.9707 11.0366C15.7863 11.0366 15.6152 11.0738 15.4574 11.1481C15.2997 11.2224 15.1614 11.3231 15.0425 11.4503C14.9237 11.5774 14.8284 11.7241 14.7567 11.8903C14.685 12.0565 14.643 12.2335 14.6307 12.4213H17.3538Z" fill="white"/>
</svg>
