<svg width="24" height="24" viewBox="0 0 24 24" fill="none" xmlns="http://www.w3.org/2000/svg">
<path d="M17.4967 7.77519C17.342 7.37676 17.1358 7.03926 16.7983 6.70176C16.4608 6.36426 16.1233 6.15801 15.7248 6.00332C15.3405 5.85332 14.8951 5.75019 14.253 5.72207C13.6061 5.69394 13.3998 5.68457 11.7498 5.68457C10.0998 5.68457 9.89358 5.68926 9.2467 5.72207C8.59983 5.75019 8.1592 5.85332 7.77483 6.00332C7.37639 6.15801 7.03889 6.36426 6.70139 6.70176C6.36389 7.03926 6.15764 7.37676 6.00295 7.77519C5.85295 8.15957 5.74983 8.60488 5.7217 9.24707C5.69358 9.89395 5.6842 10.1002 5.6842 11.7502C5.6842 13.4002 5.68889 13.6064 5.7217 14.2533C5.74983 14.9002 5.85295 15.3408 6.00295 15.7252C6.15764 16.1236 6.36389 16.4611 6.70139 16.7986C7.03889 17.1361 7.37639 17.3424 7.77483 17.4971C8.1592 17.6471 8.60452 17.7502 9.2467 17.7783C9.89358 17.8064 10.0998 17.8158 11.7498 17.8158C13.3998 17.8158 13.6061 17.8111 14.253 17.7783C14.8998 17.7502 15.3405 17.6471 15.7248 17.4971C16.1233 17.3424 16.4608 17.1361 16.7983 16.7986C17.1358 16.4611 17.342 16.1236 17.4967 15.7252C17.6467 15.3408 17.7498 14.8955 17.778 14.2533C17.8061 13.6064 17.8155 13.4002 17.8155 11.7502C17.8155 10.1002 17.8108 9.89395 17.778 9.24707C17.7498 8.6002 17.6467 8.15957 17.4967 7.77519ZM16.6858 14.2018C16.6576 14.7924 16.5592 15.1158 16.4748 15.3268C16.367 15.608 16.2311 15.8143 16.0201 16.0252C15.8092 16.2361 15.6076 16.3674 15.3217 16.4799C15.1061 16.5643 14.7873 16.6627 14.1967 16.6908C13.5545 16.7189 13.367 16.7283 11.7451 16.7283C10.1233 16.7283 9.93108 16.7236 9.29358 16.6908C8.70295 16.6627 8.37952 16.5643 8.16858 16.4799C7.88733 16.3721 7.68108 16.2361 7.47014 16.0252C7.2592 15.8143 7.12795 15.6127 7.01545 15.3268C6.93108 15.1111 6.83264 14.7924 6.80452 14.2018C6.77639 13.5596 6.76702 13.3674 6.76702 11.7502C6.76702 10.133 6.7717 9.93613 6.80452 9.29863C6.83264 8.70801 6.93108 8.38457 7.01545 8.17363C7.12327 7.89238 7.2592 7.68613 7.47014 7.4752C7.68108 7.26426 7.88264 7.13301 8.16858 7.02051C8.3842 6.93613 8.70295 6.8377 9.29358 6.80957C9.93577 6.78145 10.128 6.77207 11.7451 6.77207C13.3623 6.77207 13.5592 6.77676 14.1967 6.80957C14.7873 6.8377 15.1108 6.93613 15.3217 7.02051C15.603 7.12832 15.8092 7.26426 16.0201 7.4752C16.2311 7.68613 16.3623 7.8877 16.4748 8.17363C16.5592 8.38926 16.6576 8.70801 16.6858 9.29863C16.7139 9.94082 16.7233 10.133 16.7233 11.7502C16.7233 13.3674 16.7139 13.5643 16.6858 14.2018Z" fill="white"/>
<path d="M11.7452 8.63281C10.0249 8.63281 8.62799 10.0297 8.62799 11.75C8.62799 13.4703 10.0249 14.8672 11.7452 14.8672C13.4655 14.8672 14.8624 13.4703 14.8624 11.75C14.8624 10.0297 13.4655 8.63281 11.7452 8.63281ZM11.7452 13.775C10.6296 13.775 9.72018 12.8703 9.72018 11.75C9.72018 10.6344 10.6249 9.725 11.7452 9.725C12.8655 9.725 13.7702 10.6297 13.7702 11.75C13.7702 12.8656 12.8608 13.775 11.7452 13.775Z" fill="white"/>
<path d="M14.9842 9.2373C15.3855 9.2373 15.7108 8.91201 15.7108 8.51074C15.7108 8.10947 15.3855 7.78418 14.9842 7.78418C14.5829 7.78418 14.2576 8.10947 14.2576 8.51074C14.2576 8.91201 14.5829 9.2373 14.9842 9.2373Z" fill="black"/>
</svg>
